<svg xmlns="http://www.w3.org/2000/svg" width="24" height="24" viewBox="0 0 24 24">
  <g id="Icons" transform="translate(3 3)">
    <g id="Rounded" transform="translate(-239 -4323)">
      <g id="Toggle" transform="translate(100 4266)">
        <g id="_-Round-_-Toggle-_-star_border" data-name="-Round-/-Toggle-/-star_border" transform="translate(136 54)">
          <g id="Group_151" data-name="Group 151">
            <path id="Path" d="M0,0H24V24H0Z" fill="none" fill-rule="evenodd"/>
            <path id="_-Icon-Color" data-name="🔹-Icon-Color" d="M19.65,9.04l-4.84-.42L12.92,4.17a1,1,0,0,0-1.84,0L9.19,8.63l-4.83.41a1,1,0,0,0-.57,1.75l3.67,3.18-1.1,4.72a1,1,0,0,0,1.49,1.08L12,17.27l4.15,2.51a1,1,0,0,0,1.49-1.08l-1.1-4.73,3.67-3.18A1,1,0,0,0,19.65,9.04ZM12,15.4,8.24,17.67l1-4.28L5.92,10.51l4.38-.38L12,6.1l1.71,4.04,4.38.38L14.77,13.4l1,4.28Z" fill="#ffb600" fill-rule="evenodd"/>
          </g>
        </g>
      </g>
    </g>
  </g>
</svg>
