<?xml version="1.0" encoding="iso-8859-1"?>
<!-- Generator: Adobe Illustrator 19.0.0, SVG Export Plug-In . SVG Version: 6.00 Build 0)  -->
<svg xmlns="http://www.w3.org/2000/svg" xmlns:xlink="http://www.w3.org/1999/xlink" version="1.1" id="Layer_1" x="0px" y="0px" viewBox="0 0 512.001 512.001" style="enable-background:new 0 0 512.001 512.001;" xml:space="preserve" width="512px" height="512px">
<g>
	<g>
		<path d="M436.352,21.245c-117.987-28.327-242.714-28.327-360.701,0c-5.618,1.348-9.579,6.373-9.579,12.15v285.349    c0,37.878,17.943,72.077,49.264,93.836c45.764,31.667,92.21,66.343,133.19,96.937c2.217,1.656,4.846,2.483,7.475,2.483    c2.633,0,5.267-0.831,7.485-2.49c40.997-30.671,87.463-65.434,133.291-97.206c31.241-21.746,49.151-55.919,49.151-93.754V33.396    C445.93,27.619,441.969,22.595,436.352,21.245z M420.939,318.553c0,29.54-14.006,56.235-38.419,73.227    c-43.406,30.094-87.233,62.739-126.526,92.127c-39.274-29.313-83.075-61.872-126.417-91.863    c-24.48-17.007-38.513-43.724-38.513-73.297V43.314c108.709-24.437,221.167-24.437,329.876,0V318.553z" fill="#EC407A"/>
	</g>
</g>
<g>
	<g>
		<path d="M385.695,61.617c-42.711-7.788-86.348-11.737-129.694-11.737c-43.346,0-86.982,3.95-129.694,11.738    c-5.938,1.083-10.254,6.256-10.254,12.293v244.842c0,21.267,10.094,40.48,27.722,52.728c37.214,25.75,73.83,52.711,104.739,75.689    c2.213,1.644,4.833,2.468,7.455,2.468c2.625,0,5.251-0.825,7.465-2.474c30.926-23.039,67.56-50.067,104.789-75.88    c17.622-12.267,27.725-31.487,27.725-52.731V73.91C395.948,67.874,391.632,62.701,385.695,61.617z M353.965,350.759    c-34.562,23.962-68.553,48.92-98.004,70.813c-29.433-21.834-63.405-46.727-97.947-70.628    c-10.787-7.496-16.971-19.228-16.971-32.189V84.414c37.486-6.334,76.572-9.541,114.957-9.541c38.384,0,77.471,3.208,114.957,9.541    v234.139h0.001C370.958,331.502,364.76,343.245,353.965,350.759z" fill="#EC407A"/>
	</g>
</g>
<g>
	<g>
		<path d="M340.198,174.916c-5.112-4.636-13.015-4.25-17.65,0.862l-80.242,88.493l-39.038-39.71    c-4.838-4.923-12.751-4.989-17.671-0.151c-4.921,4.838-4.989,12.749-0.151,17.671l48.316,49.148    c2.352,2.393,5.563,3.736,8.91,3.736c0.084,0,0.169,0,0.252-0.003c3.438-0.07,6.695-1.552,9.004-4.1l89.133-98.297    C345.696,187.454,345.31,179.551,340.198,174.916z" fill="#EC407A"/>
	</g>
</g>
<g>
</g>
<g>
</g>
<g>
</g>
<g>
</g>
<g>
</g>
<g>
</g>
<g>
</g>
<g>
</g>
<g>
</g>
<g>
</g>
<g>
</g>
<g>
</g>
<g>
</g>
<g>
</g>
<g>
</g>
</svg>
