<?xml version="1.0" encoding="iso-8859-1"?>
<!-- Generator: Adobe Illustrator 19.0.0, SVG Export Plug-In . SVG Version: 6.00 Build 0)  -->
<svg xmlns="http://www.w3.org/2000/svg" xmlns:xlink="http://www.w3.org/1999/xlink" version="1.1" id="Layer_1" x="0px" y="0px" viewBox="0 0 192 192" style="enable-background:new 0 0 192 192;" xml:space="preserve" width="512px" height="512px">
<g>
	<g>
		<g>
			<path d="M26,80H6c-2.209,0-4,1.791-4,4v88c0,2.209,1.791,4,4,4h20c2.209,0,4-1.791,4-4V84C30,81.791,28.209,80,26,80z M22,168H10     V88h12V168z" fill="#FFFFFF"/>
			<path d="M66,96H46c-2.209,0-4,1.791-4,4v72c0,2.209,1.791,4,4,4h20c2.209,0,4-1.791,4-4v-72C70,97.791,68.209,96,66,96z M62,168     H50v-64h12V168z" fill="#FFFFFF"/>
			<path d="M106,64H86c-2.209,0-4,1.791-4,4v104c0,2.209,1.791,4,4,4h20c2.209,0,4-1.791,4-4V68C110,65.791,108.209,64,106,64z      M102,168H90V72h12V168z" fill="#FFFFFF"/>
			<path d="M146,48h-20c-2.209,0-4,1.791-4,4v120c0,2.209,1.791,4,4,4h20c2.209,0,4-1.791,4-4V52C150,49.791,148.209,48,146,48z      M142,168h-12V56h12V168z" fill="#FFFFFF"/>
			<path d="M186,80h-20c-2.209,0-4,1.791-4,4v88c0,2.209,1.791,4,4,4h20c2.209,0,4-1.791,4-4V84C190,81.791,188.209,80,186,80z      M182,168h-12V88h12V168z" fill="#FFFFFF"/>
			<path d="M28,64H4c-2.209,0-4,1.791-4,4s1.791,4,4,4h24c2.209,0,4-1.791,4-4S30.209,64,28,64z" fill="#FFFFFF"/>
			<path d="M28,48H4c-2.209,0-4,1.791-4,4s1.791,4,4,4h24c2.209,0,4-1.791,4-4S30.209,48,28,48z" fill="#FFFFFF"/>
			<path d="M108,48H84c-2.209,0-4,1.791-4,4s1.791,4,4,4h24c2.209,0,4-1.791,4-4S110.209,48,108,48z" fill="#FFFFFF"/>
			<path d="M108,32H84c-2.209,0-4,1.791-4,4s1.791,4,4,4h24c2.209,0,4-1.791,4-4S110.209,32,108,32z" fill="#FFFFFF"/>
			<path d="M68,32H44c-2.209,0-4,1.791-4,4s1.791,4,4,4h24c2.209,0,4-1.791,4-4S70.209,32,68,32z" fill="#FFFFFF"/>
			<path d="M28,32H4c-2.209,0-4,1.791-4,4s1.791,4,4,4h24c2.209,0,4-1.791,4-4S30.209,32,28,32z" fill="#FFFFFF"/>
			<path d="M148,32h-24c-2.209,0-4,1.791-4,4s1.791,4,4,4h24c2.209,0,4-1.791,4-4S150.209,32,148,32z" fill="#FFFFFF"/>
			<path d="M188,48h-24c-2.209,0-4,1.791-4,4s1.791,4,4,4h24c2.209,0,4-1.791,4-4S190.209,48,188,48z" fill="#FFFFFF"/>
			<path d="M188,32h-24c-2.209,0-4,1.791-4,4s1.791,4,4,4h24c2.209,0,4-1.791,4-4S190.209,32,188,32z" fill="#FFFFFF"/>
			<path d="M108,16H84c-2.209,0-4,1.791-4,4s1.791,4,4,4h24c2.209,0,4-1.791,4-4S110.209,16,108,16z" fill="#FFFFFF"/>
			<path d="M68,16H44c-2.209,0-4,1.791-4,4s1.791,4,4,4h24c2.209,0,4-1.791,4-4S70.209,16,68,16z" fill="#FFFFFF"/>
			<path d="M28,16H4c-2.209,0-4,1.791-4,4s1.791,4,4,4h24c2.209,0,4-1.791,4-4S30.209,16,28,16z" fill="#FFFFFF"/>
			<path d="M148,16h-24c-2.209,0-4,1.791-4,4s1.791,4,4,4h24c2.209,0,4-1.791,4-4S150.209,16,148,16z" fill="#FFFFFF"/>
			<path d="M164,24h24c2.209,0,4-1.791,4-4s-1.791-4-4-4h-24c-2.209,0-4,1.791-4,4S161.791,24,164,24z" fill="#FFFFFF"/>
			<path d="M188,64h-24c-2.209,0-4,1.791-4,4s1.791,4,4,4h24c2.209,0,4-1.791,4-4S190.209,64,188,64z" fill="#FFFFFF"/>
			<path d="M68,64H44c-2.209,0-4,1.791-4,4s1.791,4,4,4h24c2.209,0,4-1.791,4-4S70.209,64,68,64z" fill="#FFFFFF"/>
			<path d="M68,80H44c-2.209,0-4,1.791-4,4s1.791,4,4,4h24c2.209,0,4-1.791,4-4S70.209,80,68,80z" fill="#FFFFFF"/>
			<path d="M68,48H44c-2.209,0-4,1.791-4,4s1.791,4,4,4h24c2.209,0,4-1.791,4-4S70.209,48,68,48z" fill="#FFFFFF"/>
		</g>
	</g>
</g>
<g>
</g>
<g>
</g>
<g>
</g>
<g>
</g>
<g>
</g>
<g>
</g>
<g>
</g>
<g>
</g>
<g>
</g>
<g>
</g>
<g>
</g>
<g>
</g>
<g>
</g>
<g>
</g>
<g>
</g>
</svg>
